<svg xmlns="http://www.w3.org/2000/svg" fill="none" viewBox="0 0 141 25"><path d="M24.519.933v1.221L6.732 18.225h17.391V24H.33v-1.221L18.15 6.708H1.485V.933h23.034Zm24.583 17.292V24H29.467V.9h19.635v5.775H30.358v5.313h16.038v.957H30.358v5.28h18.744ZM59.727 2.022C61.53.966 63.786.438 66.492.438c3.146 0 5.797.792 7.953 2.376 2.178 1.584 3.663 3.872 4.455 6.864l-1.386.264c-1.254-1.386-2.74-2.343-4.455-2.871-1.716-.55-3.641-.825-5.775-.825h-1.782c-1.364 0-2.816.132-4.356.396-1.518.242-2.816.638-3.894 1.188-1.078.55-1.617 1.243-1.617 2.079 0 .484.23.869.693 1.155.462.286 1.243.506 2.343.66 1.122.132 2.673.198 4.653.198h8.943c1.606 0 3.003.231 4.19.693 1.21.44 1.816 1.364 1.816 2.772 0 1.54-.473 3.014-1.42 4.422-.945 1.408-2.287 2.541-4.025 3.399-1.716.858-3.685 1.287-5.907 1.287-6.754 0-11.011-3.08-12.771-9.24l1.353-.264c1.408 1.386 2.893 2.365 4.455 2.937 1.584.55 3.52.825 5.808.825h1.782c1.408 0 2.86-.143 4.356-.429 1.518-.286 2.794-.704 3.828-1.254 1.034-.572 1.55-1.254 1.55-2.046 0-.682-.384-1.177-1.154-1.485-.748-.33-1.705-.528-2.871-.594-1.166-.088-2.794-.132-4.884-.132h-7.36c-1.935 0-3.497-.209-4.685-.627-1.166-.44-1.75-1.32-1.75-2.64 0-1.122.408-2.387 1.222-3.795.836-1.43 2.145-2.673 3.927-3.729Zm41.383 17.424c.418.858.88 1.65 1.386 2.376.528.726 1.023 1.177 1.485 1.353a2.408 2.408 0 0 1-.264-1.089c0-.682.231-1.254.693-1.716a2.402 2.402 0 0 1 1.716-.693c.66 0 1.221.231 1.683.693.484.462.726 1.012.726 1.65 0 .682-.275 1.265-.825 1.749-.528.484-1.166.726-1.914.726-.99 0-1.804-.176-2.442-.528a4.85 4.85 0 0 1-1.617-1.452c-.44-.638-.935-1.529-1.485-2.673l-2.904-6.006L89.956 24H84.18V.9h.957v20.46L100.054.9h6.732l-8.778 12.078 3.102 6.468ZM123.487.9h6.072L140.383 24h-1.056l-3.861-8.25h-13.101l-3.96 8.25h-6.072L123.487.9Zm5.511 1.122-6.171 12.771h12.177l-6.006-12.771Z" fill="#151515"/></svg>